<svg width="284px" height="74px" xmlns="http://www.w3.org/2000/svg" xmlns:xlink="http://www.w3.org/1999/xlink">
<g style="">  <path d="M200.897729,13.344262 L263.041510,13.344262 C263.043398,6.062948,263.039848,0.047687,263.022997,0.000251 L283.798295,19.409835 L263.022726,38.819672 C263.022726,38.819672,263.028959,33.225365,263.034328,26.284152 L200.897725,26.284152 Z M263.022729,-0.000001 C263.022818,-0.000086,263.022907,-0.000001,263.022999,0.000250 Z " style="fill: rgba(251, 0, 117, 1.000000); " fill="#ff0187" stroke="none" />
</g><g style="">  <path d="M280.369320,46.502732 L218.225539,46.502732 C218.223651,39.221419,218.227201,33.206158,218.244052,33.158721 L197.468754,52.568306 L218.244322,71.978142 C218.244322,71.978142,218.238090,66.383835,218.232720,59.442623 L280.369324,59.442623 Z M218.244320,33.158469 C218.244231,33.158385,218.244142,33.158469,218.244049,33.158720 Z " style="fill: rgba(251, 0, 117, 1.000000); " fill="#ff0187" stroke="none" />
</g><g style="">  <path d="M2.900000,-0.400000 L2.900000,71.000000 L18.600000,71.000000 L18.600000,40.200000 L47.500000,40.200000 L47.500000,71.000000 L63.200000,71.000000 L63.200000,-0.400000 L47.500000,-0.400000 L47.500000,27.000000 L18.600000,27.000000 L18.600000,-0.400000 Z M124.000000,71.000000 L124.000000,19.300000 L109.800000,19.300000 L109.800000,46.400000 C109.800000,51.666693,108.933342,55.449988,107.200000,57.750000 C105.466658,60.050012,102.666686,61.200000,98.800000,61.200000 C95.399983,61.200000,93.033340,60.150011,91.700000,58.050000 C90.366660,55.949990,89.700000,52.766688,89.700000,48.500000 L89.700000,19.300000 L75.500000,19.300000 L75.500000,51.100000 C75.500000,54.300016,75.783331,57.216654,76.350000,59.850000 C76.916670,62.483346,77.899993,64.716657,79.300000,66.550000 C80.700007,68.383342,82.616655,69.799995,85.050000,70.800000 C87.483346,71.800005,90.599981,72.300000,94.400000,72.300000 C97.400015,72.300000,100.333319,71.633340,103.200000,70.300000 C106.066681,68.966660,108.399991,66.800015,110.200000,63.800000 L110.500000,63.800000 L110.500000,71.000000 Z M134.800000,19.300000 L134.800000,71.000000 L149.000000,71.000000 L149.000000,47.700000 C149.000000,45.366655,149.233331,43.200010,149.700000,41.200000 C150.166669,39.199990,150.949995,37.450007,152.050000,35.950000 C153.150006,34.449993,154.599991,33.266671,156.400000,32.400000 C158.200009,31.533329,160.399987,31.100000,163.000000,31.100000 C163.866671,31.100000,164.766662,31.149999,165.700000,31.250000 C166.633338,31.350001,167.433330,31.466666,168.100000,31.600000 L168.100000,18.400000 C166.966661,18.066665,165.933338,17.900000,165.000000,17.900000 C163.199991,17.900000,161.466675,18.166664,159.800000,18.700000 C158.133325,19.233336,156.566674,19.983328,155.100000,20.950000 C153.633326,21.916672,152.333339,23.083326,151.200000,24.450000 C150.066661,25.816674,149.166670,27.299992,148.500000,28.900000 L148.300000,28.900000 L148.300000,19.300000 Z M174.100000,-0.400000 L174.100000,71.000000 L188.300000,71.000000 L188.300000,-0.400000 Z " style="fill: rgba(222, 222, 222, 1.000000); " fill="#dedede" stroke="none" />
</g></svg>