<svg width="284px" height="284px" xmlns="http://www.w3.org/2000/svg" xmlns:xlink="http://www.w3.org/1999/xlink">
<g style="">  <path d="M40.000000,87.000000 L194.046555,87.000000 C194.051235,68.993509,194.042435,54.117931,194.000665,54.000622 L245.499993,102.000000 L193.999993,150.000000 C193.999993,150.000000,194.015443,136.165430,194.028753,119.000000 L39.999990,119.000000 Z M194.000000,54.000000 C194.000220,53.999790,194.000440,54.000000,194.000670,54.000620 Z " style="fill: rgba(251, 0, 117, 1.000000); " fill="#ff0187" stroke="none" />
</g><g style="">  <path d="M237.000000,169.000000 L82.953445,169.000000 C82.948765,150.993509,82.957565,136.117931,82.999335,136.000622 L31.500007,184.000000 L83.000007,232.000000 C83.000007,232.000000,82.984557,218.165430,82.971247,201.000000 L237.000010,201.000000 Z M83.000000,136.000000 C82.999780,135.999790,82.999560,136.000000,82.999330,136.000620 Z " style="fill: rgba(251, 0, 117, 1.000000); " fill="#ff0187" stroke="none" />
</g></svg>