<svg xmlns="http://www.w3.org/2000/svg" width="1262" height="1266" viewBox="0 0 1262 1266"><defs><linearGradient x1="0" y1="0" x2="1" y2="0" id="grad0"><stop offset="0%" stop-color="#ff8000" /><stop offset="100%" stop-color="#f63c2d" /></linearGradient><linearGradient x1="0" y1="0" x2="1" y2="0" id="grad1"><stop offset="0%" stop-color="#ff0288" /><stop offset="100%" stop-color="#ac2eea" /></linearGradient><linearGradient x1="0" y1="0" x2="1" y2="0" id="grad2"><stop offset="0%" stop-color="green" /><stop offset="100%" stop-color="#2aff2a" /></linearGradient></defs><g><rect x="404" y="34" width="242" height="63" fill="url('#grad0')" stroke="#c2c2c2" stroke-width="2" rx="10" ry="10" /><text x="489" y="74" fill="white" font-family="Helvetica" font-size="24px" font-weight="bold">Client</text></g><g><rect x="965" y="34" width="242" height="63" fill="url('#grad1')" stroke="#c2c2c2" stroke-width="2" rx="10" ry="10" /><text x="1020" y="74" fill="white" font-family="Helvetica" font-size="24px" font-weight="bold">DNS Server</text></g><g><rect x="965" y="268" width="242" height="63" fill="url('#grad2')" stroke="#c2c2c2" stroke-width="2" rx="10" ry="10" /><text x="1020" y="308" fill="white" font-family="Helvetica" font-size="24px" font-weight="bold">Web Server</text></g><rect x="522" y="98" width="4" height="1164" fill="#c2c2c2" /><rect x="1084" y="98" width="4" height="170" fill="#c2c2c2" /><rect x="1084" y="330" width="4" height="932" fill="#c2c2c2" /><g><g transform="rotate(7, 551, 145)"><line x1="551" y1="145" x2="753.8" y2="145" stroke="#c2c2c2" stroke-width="2" /><line x1="868.2" y1="145" x2="1058.5" y2="145" stroke="#c2c2c2" stroke-width="2" /><path d="M 1071 145 L 1047.11658777186 137.6119948334665 L 1052 145 L 1047.11658777186 152.3880051665335 Z" fill="#c2c2c2" /></g><text x="786" y="170" fill="#c2c2c2" font-family="Helvetica" font-size="22px">DNS</text><text x="768" y="193" fill="#c2c2c2" font-family="Helvetica" font-size="22px">Request</text></g><g><g transform="rotate(173, 1065, 225)"><line x1="1065" y1="225" x2="1260" y2="225" stroke="#c2c2c2" stroke-width="2" /><line x1="1390" y1="225" x2="1572.5" y2="225" stroke="#c2c2c2" stroke-width="2" /><path d="M 1585 225 L 1561.11658777186 217.6119948334665 L 1566 225 L 1561.11658777186 232.3880051665335 Z" fill="#c2c2c2" /></g><text x="786" y="251" fill="#c2c2c2" font-family="Helvetica" font-size="22px">DNS</text><text x="762" y="276" fill="#c2c2c2" font-family="Helvetica" font-size="22px">Response</text></g><g><g transform="rotate(7, 551, 305)"><line x1="551" y1="305" x2="772" y2="305" stroke="#c2c2c2" stroke-width="2" /><line x1="850" y1="305" x2="1058.5" y2="305" stroke="#c2c2c2" stroke-width="2" /><path d="M 1071 305 L 1047.11658777186 297.6119948334665 L 1052 305 L 1047.11658777186 312.3880051665335 Z" fill="#c2c2c2" /></g><text x="786" y="343" fill="#c2c2c2" font-family="Helvetica" font-size="22px">SYN</text></g><g><g transform="rotate(173, 1065, 385)"><line x1="1065" y1="385" x2="1260" y2="385" stroke="#c2c2c2" stroke-width="2" /><line x1="1390" y1="385" x2="1572.5" y2="385" stroke="#c2c2c2" stroke-width="2" /><path d="M 1585 385 L 1561.11658777186 377.6119948334665 L 1566 385 L 1561.11658777186 392.3880051665335 Z" fill="#c2c2c2" /></g><text x="762" y="427" fill="#c2c2c2" font-family="Helvetica" font-size="22px">SYN/ACK</text></g><g><g transform="rotate(7, 551, 465)"><line x1="551" y1="465" x2="772" y2="465" stroke="#c2c2c2" stroke-width="2" /><line x1="850" y1="465" x2="1058.5" y2="465" stroke="#c2c2c2" stroke-width="2" /><path d="M 1071 465 L 1047.11658777186 457.6119948334665 L 1052 465 L 1047.11658777186 472.3880051665335 Z" fill="#c2c2c2" /></g><text x="786" y="506" fill="#c2c2c2" font-family="Helvetica" font-size="22px">ACK</text></g><g><g transform="rotate(7, 551, 500)"><line x1="551" y1="500" x2="746" y2="500" stroke="#c2c2c2" stroke-width="2" /><line x1="876" y1="500" x2="1058.5" y2="500" stroke="#c2c2c2" stroke-width="2" /><path d="M 1071 500 L 1047.11658777186 492.6119948334665 L 1052 500 L 1047.11658777186 507.3880051665335 Z" fill="#c2c2c2" /></g><text x="758" y="538" fill="#c2c2c2" font-family="Helvetica" font-size="22px">ClientHello</text></g><g><g transform="rotate(173, 1065, 580)"><line x1="1065" y1="580" x2="1252.2" y2="580" stroke="#c2c2c2" stroke-width="2" /><line x1="1397.8" y1="580" x2="1572.5" y2="580" stroke="#c2c2c2" stroke-width="2" /><path d="M 1585 580 L 1561.11658777186 572.6119948334665 L 1566 580 L 1561.11658777186 587.3880051665335 Z" fill="#c2c2c2" /></g><text x="750" y="610" fill="#c2c2c2" font-family="Helvetica" font-size="22px">ServerHello</text><text x="762" y="633" fill="#c2c2c2" font-family="Helvetica" font-size="22px">Certificate</text></g><g><g transform="rotate(7, 551, 660)"><line x1="551" y1="660" x2="694" y2="660" stroke="#c2c2c2" stroke-width="2" /><line x1="928" y1="660" x2="1058.5" y2="660" stroke="#c2c2c2" stroke-width="2" /><path d="M 1071 660 L 1047.11658777186 652.6119948334665 L 1052 660 L 1047.11658777186 667.3880051665335 Z" fill="#c2c2c2" /></g><text x="736" y="690" fill="#c2c2c2" font-family="Helvetica" font-size="22px">ClientKeyExch,</text><text x="708" y="713" fill="#c2c2c2" font-family="Helvetica" font-size="22px">ChangeCypherSpec</text></g><g><g transform="rotate(173, 1065, 740)"><line x1="1065" y1="740" x2="1215.8" y2="740" stroke="#c2c2c2" stroke-width="2" /><line x1="1434.2" y1="740" x2="1572.5" y2="740" stroke="#c2c2c2" stroke-width="2" /><path d="M 1585 740 L 1561.11658777186 732.6119948334665 L 1566 740 L 1561.11658777186 747.3880051665335 Z" fill="#c2c2c2" /></g><text x="714" y="770" fill="#c2c2c2" font-family="Helvetica" font-size="22px">ChangeCyperSpec</text><text x="766" y="793" fill="#c2c2c2" font-family="Helvetica" font-size="22px">Finished</text></g><g><g transform="rotate(7, 551, 820)"><line x1="551" y1="820" x2="740.8" y2="820" stroke="#c2c2c2" stroke-width="2" /><line x1="881.2" y1="820" x2="1058.5" y2="820" stroke="#c2c2c2" stroke-width="2" /><path d="M 1071 820 L 1047.11658777186 812.6119948334665 L 1052 820 L 1047.11658777186 827.3880051665335 Z" fill="#c2c2c2" /></g><text x="756" y="858" fill="#c2c2c2" font-family="Helvetica" font-size="22px">HTTP GET</text></g><g><g transform="rotate(173, 1065, 1002)"><line x1="1065" y1="1002" x2="1572.5" y2="1002" stroke="#c2c2c2" stroke-width="2" /><path d="M 1585 1002 L 1561.11658777186 994.6119948334665 L 1566 1002 L 1561.11658777186 1009.3880051665335 Z" fill="#c2c2c2" /></g><g transform="rotate(173, 1065, 1048)"><line x1="1065" y1="1048" x2="1260" y2="1048" stroke="#c2c2c2" stroke-width="2" /><line x1="1390" y1="1048" x2="1572.5" y2="1048" stroke="#c2c2c2" stroke-width="2" /><path d="M 1585 1048 L 1561.11658777186 1040.6119948334665 L 1566 1048 L 1561.11658777186 1055.3880051665335 Z" fill="#c2c2c2" /></g><g transform="rotate(173, 1065, 1094)"><line x1="1065" y1="1094" x2="1572.5" y2="1094" stroke="#c2c2c2" stroke-width="2" /><path d="M 1585 1094 L 1561.11658777186 1086.6119948334665 L 1566 1094 L 1561.11658777186 1101.3880051665335 Z" fill="#c2c2c2" /></g><text x="758" y="1086" fill="#c2c2c2" font-family="Helvetica" font-size="22px">Response</text></g><g><g transform="rotate(7, 551, 1187)"><line x1="551" y1="1187" x2="772" y2="1187" stroke="#c2c2c2" stroke-width="2" /><line x1="850" y1="1187" x2="1058.5" y2="1187" stroke="#c2c2c2" stroke-width="2" /><path d="M 1071 1187 L 1047.11658777186 1179.6119948334665 L 1052 1187 L 1047.11658777186 1194.3880051665335 Z" fill="#c2c2c2" /></g><text x="792" y="1226" fill="#c2c2c2" font-family="Helvetica" font-size="22px">FIN</text></g><path d="M 1108 367 h 6 a 8 8 0 0 1 8 8 v 344 a 8 8 0 0 0 8 8 a 8 8 0 0 0 -8 8 v 344 a 8 8 0 0 1 -8 8h -6" fill="none" stroke="#c2c2c2" stroke-width="2" /><path d="M 192 137 h -6 a 8 8 0 0 0 -8 8 v 62 a 8 8 0 0 1 -8 8 a 8 8 0 0 1 8 8 v 62 a 8 8 0 0 0 8 8h 6" fill="none" stroke="#c2c2c2" stroke-width="2" /><path d="M 192 302 h -6 a 8 8 0 0 0 -8 8 v 58 a 8 8 0 0 1 -8 8 a 8 8 0 0 1 8 8 v 58 a 8 8 0 0 0 8 8h 6" fill="none" stroke="#c2c2c2" stroke-width="2" /><path d="M 192 460 h -6 a 8 8 0 0 0 -8 8 v 151 a 8 8 0 0 1 -8 8 a 8 8 0 0 1 8 8 v 151 a 8 8 0 0 0 8 8h 6" fill="none" stroke="#c2c2c2" stroke-width="2" /><path d="M 192 820 h -6 a 8 8 0 0 0 -8 8 v 104 a 8 8 0 0 1 -8 8 a 8 8 0 0 1 8 8 v 104 a 8 8 0 0 0 8 8h 6" fill="none" stroke="#c2c2c2" stroke-width="2" /><path d="M 192 1072 h -6 a 8 8 0 0 0 -8 8 v 54 a 8 8 0 0 1 -8 8 a 8 8 0 0 1 8 8 v 54 a 8 8 0 0 0 8 8h 6" fill="none" stroke="#c2c2c2" stroke-width="2" /><g fill="#c2c2c2" font-family="Helvetica" font-size="22px"><text x="468" y="150" fill="#c2c2c2" font-family="Helvetica" font-size="22px">0 s</text><text x="426" y="303" fill="#c2c2c2" font-family="Helvetica" font-size="22px">1.510 s</text><text x="214" y="303" fill="#c2c2c2" font-family="Helvetica" font-size="22px">time_namelookup</text><text x="426" y="461" fill="#c2c2c2" font-family="Helvetica" font-size="22px">1.757 s</text><text x="254" y="461" fill="#c2c2c2" font-family="Helvetica" font-size="22px">time_connect</text><text x="426" y="800" fill="#c2c2c2" font-family="Helvetica" font-size="22px">2.256 s</text><text x="218" y="800" fill="#c2c2c2" font-family="Helvetica" font-size="22px">time_appconnect</text><text x="426" y="825" fill="#c2c2c2" font-family="Helvetica" font-size="22px">2.259 s</text><text x="226" y="825" fill="#c2c2c2" font-family="Helvetica" font-size="22px">time_pretransfer</text><text x="426" y="1070" fill="#c2c2c2" font-family="Helvetica" font-size="22px">2.506 s</text><text x="214" y="1070" fill="#c2c2c2" font-family="Helvetica" font-size="22px">time_starttransfer</text><text x="426" y="1196" fill="#c2c2c2" font-family="Helvetica" font-size="22px">3.001 s</text><text x="292" y="1196" fill="#c2c2c2" font-family="Helvetica" font-size="22px">time_total</text><text x="1101" y="208" fill="#c2c2c2" font-family="Helvetica" font-size="22px">DNS resolver</text><text x="1114" y="231" fill="#c2c2c2" font-family="Helvetica" font-size="22px">e.g. 1.1.1.1</text></g><g fill="#c2c2c2" font-family="Helvetica" font-size="22px" font-weight="bold"><text x="76" y="211" fill="#c2c2c2" font-family="Helvetica" font-size="22px">DNS</text><text x="60" y="234" fill="#c2c2c2" font-family="Helvetica" font-size="22px">Lookup</text><text x="72" y="374" fill="#c2c2c2" font-family="Helvetica" font-size="22px">TCP</text><text x="32" y="397" fill="#c2c2c2" font-family="Helvetica" font-size="22px">Handshake</text><text x="64" y="624" fill="#c2c2c2" font-family="Helvetica" font-size="22px">SSL</text><text x="32" y="647" fill="#c2c2c2" font-family="Helvetica" font-size="22px">Handshake</text><text x="100" y="947" fill="#c2c2c2" font-family="Helvetica" font-size="22px">Wait</text><text x="83" y="1139" fill="#c2c2c2" font-family="Helvetica" font-size="22px">Data</text><text x="60" y="1162" fill="#c2c2c2" font-family="Helvetica" font-size="22px">Transfer</text><text x="1163" y="725" fill="#c2c2c2" font-family="Helvetica" font-size="22px">Web</text><text x="1152" y="748" fill="#c2c2c2" font-family="Helvetica" font-size="22px">Server</text></g></svg>
